<svg width="16" height="15" viewBox="0 0 16 15" fill="none" xmlns="http://www.w3.org/2000/svg">
<g clip-path="url(#clip0_144_66)">
<path d="M3.9998 4H11.1998M3.9998 7.2H7.9998M14.3998 0.799999H1.5998C1.38763 0.799999 1.18415 0.884285 1.03412 1.03431C0.88409 1.18434 0.799805 1.38783 0.799805 1.6V9.6C0.799805 9.81217 0.88409 10.0157 1.03412 10.1657C1.18415 10.3157 1.38763 10.4 1.5998 10.4H4.7998L7.5998 13.6L10.3998 10.4H14.3998C14.612 10.4 14.8155 10.3157 14.9655 10.1657C15.1155 10.0157 15.1998 9.81217 15.1998 9.6V1.6C15.1998 1.38783 15.1155 1.18434 14.9655 1.03431C14.8155 0.884285 14.612 0.799999 14.3998 0.799999Z" stroke="#35043C" stroke-linecap="round" stroke-linejoin="round"/>
</g>
<defs>
<clipPath id="clip0_144_66">
<rect width="16" height="14.4" fill="white"/>
</clipPath>
</defs>
</svg>
