<svg width="16" height="16" viewBox="0 0 16 16" fill="none" xmlns="http://www.w3.org/2000/svg">
<g clip-path="url(#clip0_144_60)">
<path d="M14.6663 8.13593V9.14999C14.6663 11.7505 14.6663 13.0509 13.8853 13.8587C13.1043 14.6667 11.8471 14.6667 9.33301 14.6667H6.66634C4.15218 14.6667 2.89511 14.6667 2.11405 13.8587C1.33301 13.0509 1.33301 11.7505 1.33301 9.14999V8.13593C1.33301 6.61032 1.33301 5.84751 1.67914 5.21515C2.02527 4.5828 2.65764 4.19033 3.92236 3.40541L5.25569 2.57791C6.5926 1.74819 7.26107 1.33333 7.99967 1.33333C8.73827 1.33333 9.40674 1.74819 10.7437 2.57791L12.077 3.40541C13.3417 4.19033 13.9741 4.5828 14.3202 5.21515" stroke="#35043C" stroke-linecap="round"/>
<path d="M10 12H6" stroke="#35043C" stroke-linecap="round"/>
</g>
<defs>
<clipPath id="clip0_144_60">
<rect width="16" height="16" fill="white"/>
</clipPath>
</defs>
</svg>
