<svg width="16" height="18" viewBox="0 0 16 18" fill="none" xmlns="http://www.w3.org/2000/svg">
<path d="M10.7093 8.11111V3.66667C10.7093 2.95942 10.4284 2.28115 9.92826 1.78105C9.42816 1.28095 8.74988 1 8.04264 1C7.3354 1 6.65712 1.28095 6.15702 1.78105C5.65692 2.28115 5.37597 2.95942 5.37597 3.66667V8.11111M14.1938 17H1.89153C1.76881 17.0004 1.64734 16.9753 1.53478 16.9264C1.42222 16.8775 1.321 16.8059 1.2375 16.7159C1.15399 16.626 1.09002 16.5198 1.0496 16.4039C1.00918 16.288 0.993189 16.165 1.00264 16.0427L1.82042 5.44444H14.2649L15.08 16.0427C15.0894 16.1648 15.0735 16.2876 15.0332 16.4033C14.993 16.5189 14.9292 16.6251 14.846 16.715C14.7628 16.8048 14.6619 16.8766 14.5497 16.9256C14.4374 16.9747 14.3162 17 14.1938 17Z" stroke="#35043C" stroke-linecap="round" stroke-linejoin="round"/>
</svg>
