<svg width="12" height="11" viewBox="0 0 12 11" fill="none" xmlns="http://www.w3.org/2000/svg">
<path d="M5.71562 1.17469C5.73871 1.12302 5.77805 1.07882 5.82862 1.04772C5.87919 1.01661 5.9387 1 5.99959 1C6.06049 1 6.12 1.01661 6.17057 1.04772C6.22114 1.07882 6.26047 1.12302 6.28357 1.17469L7.44405 3.73421C7.46578 3.7821 7.50149 3.82357 7.54725 3.85406C7.59302 3.88454 7.64707 3.90285 7.70345 3.90698L10.7169 4.12833C10.9894 4.14836 11.0997 4.46035 10.8922 4.62311L8.59634 6.42694C8.55345 6.46059 8.52149 6.50442 8.50395 6.55362C8.48642 6.60282 8.484 6.6555 8.49695 6.70588L9.1987 9.40262C9.21281 9.45673 9.20911 9.51345 9.18808 9.56563C9.16705 9.61781 9.12963 9.6631 9.08054 9.69579C9.03146 9.72847 8.97291 9.74709 8.91229 9.74928C8.85168 9.75147 8.79171 9.73714 8.73997 9.7081L6.1596 8.26333C6.1114 8.23639 6.05604 8.22214 5.99959 8.22214C5.94315 8.22214 5.88779 8.23639 5.83958 8.26333L3.25922 9.7086C3.20748 9.73764 3.14751 9.75197 3.0869 9.74978C3.02628 9.74759 2.96773 9.72898 2.91865 9.69629C2.86956 9.6636 2.83214 9.61831 2.81111 9.56613C2.79008 9.51395 2.78638 9.45723 2.80049 9.40312L3.50224 6.70588C3.51525 6.6555 3.51286 6.60281 3.49532 6.55359C3.47779 6.50438 3.44579 6.46056 3.40285 6.42694L1.107 4.62311C1.06103 4.58686 1.02777 4.53895 1.01141 4.48541C0.995044 4.43187 0.99631 4.37509 1.01505 4.32221C1.03378 4.26933 1.06915 4.22271 1.1167 4.18821C1.16426 4.15371 1.22187 4.13288 1.2823 4.12833L4.29573 3.90698C4.35212 3.90285 4.40617 3.88454 4.45194 3.85406C4.4977 3.82357 4.53341 3.7821 4.55514 3.73421L5.71562 1.17469Z" fill="#F99417" stroke="#F99417" stroke-linecap="round" stroke-linejoin="round"/>
</svg>
