<svg width="26" height="29" viewBox="0 0 26 29" fill="none" xmlns="http://www.w3.org/2000/svg">
<path d="M8.5 21.9618C7.70435 21.9618 6.94129 22.2773 6.37868 22.8389C5.81607 23.4005 5.5 24.1622 5.5 24.9564C5.5 25.7506 5.81607 26.5122 6.37868 27.0738C6.94129 27.6354 7.70435 27.9509 8.5 27.9509C9.29565 27.9509 10.0587 27.6354 10.6213 27.0738C11.1839 26.5122 11.5 25.7506 11.5 24.9564C11.5 24.1622 11.1839 23.4005 10.6213 22.8389C10.0587 22.2773 9.29565 21.9618 8.5 21.9618ZM8.5 21.9618H20.5M8.5 21.9618L7 15.9727M20.5 21.9618C19.7044 21.9618 18.9413 22.2773 18.3787 22.8389C17.8161 23.4005 17.5 24.1622 17.5 24.9564C17.5 25.7506 17.8161 26.5122 18.3787 27.0738C18.9413 27.6354 19.7044 27.9509 20.5 27.9509C21.2956 27.9509 22.0587 27.6354 22.6213 27.0738C23.1839 26.5122 23.5 25.7506 23.5 24.9564C23.5 24.1622 23.1839 23.4005 22.6213 22.8389C22.0587 22.2773 21.2956 21.9618 20.5 21.9618ZM7 15.9727H22L25 5.49182H4M7 15.9727L4 5.49182M4 5.49182L2.812 1H1" stroke="#35043C" stroke-width="2" stroke-linecap="round" stroke-linejoin="round"/>
</svg>
