<svg width="16" height="17" viewBox="0 0 16 17" fill="none" xmlns="http://www.w3.org/2000/svg">
<path d="M7.61735 4.77778C7.61735 3.45067 7.96758 2.14667 8.63424 1H8.56224C7.23551 0.998829 5.93186 1.34703 4.7824 2.00959C3.63295 2.67214 2.67822 3.62569 2.01425 4.77432C1.35027 5.92296 1.00046 7.22618 1 8.55291C0.999537 9.87965 1.34844 11.1831 2.01161 12.3322C2.67478 13.4813 3.62884 14.4355 4.77783 15.0989C5.92682 15.7622 7.23023 16.1114 8.55696 16.1111C9.88369 16.1109 11.187 15.7613 12.3357 15.0975C13.4845 14.4337 14.4382 13.4791 15.1009 12.3298C13.1102 12.3108 11.2074 11.5069 9.80606 10.0928C8.40475 8.67865 7.6182 6.76861 7.61735 4.77778Z" stroke="#35043C" stroke-linecap="round" stroke-linejoin="round"/>
</svg>
